#define close_width 6
#define close_height 6
static unsigned char close_bits[] = {
   0x00, 0x09, 0x09, 0x06, 0x09, 0x09 };
